PathFileType	4	(X/Y/Z)	/Users/FranklinZhao/OpenSimProject/Simulation/c3d_to_trc/SN001_static.trc
DataRate	CameraRate	NumFrames	NumMarkers	Units	OrigDataRate	OrigDataStartFrame	OrigNumFrames
200.000000	200.000000	3	72	mm	200.000000	0	14
Frame#	Time	LPSIS			RPSIS			LICR			RICR			LASIS			RASIS			RUA1			RUA2			RUA3			RUA4			RHLE			RHME			RTEMP			RHEAD			LHEAD			LTEMP			RACR			LACR			LUA1			LUA2			LUA3			LUA4			LHLE			LHME			STER			XPRO			C7			T4			T8			T10			LFA1			LFA2			LFA3			LRSP			LUSP			RFA1			RFA2			RFA3			RRSP			RUSP			LTH1			LTH2			LTH3			LTH4			LFLE			LFME			LSK1			LSK2			LSK3			LSK4			LTAM			LFAL			LFCC			LFMT1			LFMT2			LFMT5			RTH1			RTH2			RTH3			RTH4			RFLE			RFME			RSK1			RSK2			RSK3			RSK4			RFAL			RTAM			RFCC			RFMT1			RFMT2			RFMT5			
		X1	Y1	Z1	X2	Y2	Z2	X3	Y3	Z3	X4	Y4	Z4	X5	Y5	Z5	X6	Y6	Z6	X7	Y7	Z7	X8	Y8	Z8	X9	Y9	Z9	X10	Y10	Z10	X11	Y11	Z11	X12	Y12	Z12	X13	Y13	Z13	X14	Y14	Z14	X15	Y15	Z15	X16	Y16	Z16	X17	Y17	Z17	X18	Y18	Z18	X19	Y19	Z19	X20	Y20	Z20	X21	Y21	Z21	X22	Y22	Z22	X23	Y23	Z23	X24	Y24	Z24	X25	Y25	Z25	X26	Y26	Z26	X27	Y27	Z27	X28	Y28	Z28	X29	Y29	Z29	X30	Y30	Z30	X31	Y31	Z31	X32	Y32	Z32	X33	Y33	Z33	X34	Y34	Z34	X35	Y35	Z35	X36	Y36	Z36	X37	Y37	Z37	X38	Y38	Z38	X39	Y39	Z39	X40	Y40	Z40	X41	Y41	Z41	X42	Y42	Z42	X43	Y43	Z43	X44	Y44	Z44	X45	Y45	Z45	X46	Y46	Z46	X47	Y47	Z47	X48	Y48	Z48	X49	Y49	Z49	X50	Y50	Z50	X51	Y51	Z51	X52	Y52	Z52	X53	Y53	Z53	X54	Y54	Z54	X55	Y55	Z55	X56	Y56	Z56	X57	Y57	Z57	X58	Y58	Z58	X59	Y59	Z59	X60	Y60	Z60	X61	Y61	Z61	X62	Y62	Z62	X63	Y63	Z63	X64	Y64	Z64	X65	Y65	Z65	X66	Y66	Z66	X67	Y67	Z67	X68	Y68	Z68	X69	Y69	Z69	X70	Y70	Z70	X71	Y71	Z71	X72	Y72	Z72	

1	0	1604.74755859375	276.7533874511719	1006.657165527344	1604.299072265625	354.0596313476562	1009.634460449219	1585.516235351562	183.9215545654297	1066.23046875	1572.944213867188	445.4125061035156	1091.438598632812	1413.401611328125	185.3840484619141	989.2449951171875	1406.956665039062	444.4156188964844	994.517578125	1559.757446289062	562.2472534179688	1369.958129882812	1498.5341796875	592.6768188476562	1400.794921875	1480.274536132812	639.9085083007812	1346.417236328125	1538.532592773438	616.5709228515625	1306.394897460938	1500.158325195312	665.2627563476562	1244.343994140625	1449.069213867188	613.92626953125	1218.601928710938	1410.283447265625	390.6608276367188	1708.160400390625	1367.865356445312	353.6318664550781	1714.854125976562	1369.453369140625	271.6501770019531	1712.319946289062	1419.7470703125	233.6220245361328	1701.151977539062	1532.761596679688	480.7329711914062	1523.071411132812	1548.221923828125	128.4502105712891	1526.150024414062	1517.35986328125	30.11481666564941	1408.452270507812	1566.419067382812	52.80323028564453	1354.875	1539.678588867188	0.7922279834747314	1290.64453125	1491.15478515625	-21.27435874938965	1342.855712890625	1494.26904296875	-41.86265563964844	1249.0732421875	1457.700805664062	11.43576049804688	1217.426635742188	1448.244995117188	302.025634765625	1455.011352539062	1391.005126953125	294.8869323730469	1250.25439453125	1576.9853515625	312.8383178710938	1559.919677734375	1635.820922851562	307.5414733886719	1450.263793945312	1635.8779296875	311.1267395019531	1314.873413085938	1630.432983398438	306.3602294921875	1269.871704101562	1447.662109375	-223.9218139648438	1140.004150390625	1473.318481445312	-200.8181457519531	1107.762451171875	1437.8525390625	-228.8817138671875	1107.04833984375	1390.56982421875	-248.1680755615234	1100.32861328125	1413.899047851562	-209.9745788574219	1047.199829101562	1506.429565429688	808.7967529296875	1120.495727539062	1487.023681640625	837.2664794921875	1152.023803710938	1480.606323242188	845.8883056640625	1118.855346679688	1449.517822265625	889.8081665039062	1099.493896484375	1456.882446289062	844.208740234375	1056.187133789062	1489.689697265625	123.0869293212891	715.9682006835938	1538.841796875	134.8351593017578	719.6854858398438	1553.0419921875	143.3592529296875	612.748291015625	1490.636596679688	126.3028945922852	613.2923583984375	1534.501953125	142.8128662109375	520.3262939453125	1519.338745117188	259.1351623535156	492.1347961425781	1568.816650390625	100.2573623657227	350.7893371582031	1626.99853515625	122.6108856201172	352.7330322265625	1631.076782226562	127.7216796875	264.9302062988281	1571.954467773438	102.6803512573242	267.3808898925781	1551.07861328125	193.7358703613281	85.32520294189453	1608.066528320312	133.3050842285156	76.61151123046875	1627.165649414062	188.3972015380859	36.6338996887207	1421.707397460938	131.6405029296875	30.29263114929199	1433.387329101562	93.69628143310547	31.1558952331543	1491.859497070312	58.67976760864258	23.58554840087891	1513.92333984375	499.5735778808594	748.5396118164062	1457.7705078125	497.7379150390625	727.6416015625	1460.442993164062	489.6141967773438	641.0166625976562	1524.706298828125	489.5134887695312	648.3088989257812	1524.995483398438	480.5905456542969	536.3753662109375	1519.98095703125	362.01416015625	500.7520751953125	1590.896240234375	512.18701171875	366.3563842773438	1534.396362304688	518.6446533203125	383.5478210449219	1533.404174804688	513.73583984375	274.3359069824219	1597.435668945312	511.4920349121094	283.6156616210938	1594.15869140625	487.9555358886719	74.146240234375	1550.294555664062	414.9452819824219	87.56560516357422	1623.540161132812	439.9077453613281	42.79611587524414	1422.850708007812	455.0094299316406	30.17852210998535	1421.8017578125	500.0098876953125	31.1392879486084	1468.169311523438	547.1583251953125	21.15594863891602	
2	0.005	1604.765625	276.7247924804688	1006.686096191406	1604.351318359375	354.0997314453125	1009.651489257812	1585.516479492188	183.9069519042969	1066.2373046875	1572.9921875	445.4139099121094	1091.41748046875	1413.390991210938	185.3543395996094	989.2765502929688	1406.958129882812	444.3692626953125	994.54248046875	1559.7939453125	562.2598266601562	1369.951049804688	1498.54638671875	592.7261352539062	1400.818237304688	1480.338623046875	639.9439086914062	1346.411743164062	1538.6162109375	616.5521240234375	1306.401245117188	1500.198852539062	665.248046875	1244.312866210938	1449.140258789062	613.9331665039062	1218.601196289062	1410.350830078125	390.6731262207031	1708.14599609375	1367.934326171875	353.6125793457031	1714.9091796875	1369.462768554688	271.6882934570312	1712.3720703125	1419.802124023438	233.6304321289062	1701.23583984375	1532.820434570312	480.74462890625	1523.064575195312	1548.255249023438	128.4400939941406	1526.196044921875	1517.412353515625	30.11405372619629	1408.473022460938	1566.47900390625	52.82870101928711	1354.893676757812	1539.725952148438	0.8060479760169983	1290.690185546875	1491.158447265625	-21.27937507629395	1342.872802734375	1494.316284179688	-41.90015411376953	1249.095825195312	1457.720825195312	11.45431613922119	1217.4150390625	1448.249389648438	301.9934387207031	1455.095581054688	1390.989379882812	294.8409729003906	1250.2099609375	1577.0185546875	312.8517150878906	1559.907836914062	1635.87255859375	307.4755249023438	1450.383178710938	1635.8564453125	311.1311950683594	1314.873779296875	1630.415161132812	306.3421630859375	1269.847412109375	1447.606567382812	-223.9783477783203	1140.05712890625	1473.247802734375	-200.8934020996094	1107.789916992188	1437.811401367188	-228.9793548583984	1107.123168945312	1390.518188476562	-248.17724609375	1100.42041015625	1413.801635742188	-210.0779418945312	1047.275146484375	1506.44677734375	808.7786865234375	1120.456176757812	1487.049560546875	837.2506103515625	1152.012573242188	1480.660278320312	845.9560546875	1118.931396484375	1449.510620117188	889.8199462890625	1099.521362304688	1456.855346679688	844.2257080078125	1056.214965820312	1489.73681640625	123.1145553588867	715.9979248046875	1538.829956054688	134.8579406738281	719.7105102539062	1553.0625	143.3681335449219	612.7425537109375	1490.642456054688	126.3109512329102	613.2515869140625	1534.491455078125	142.7891693115234	520.2728881835938	1519.325439453125	259.1744995117188	492.1961975097656	1568.77685546875	100.2399063110352	350.8560485839844	1626.99169921875	122.5685653686523	352.7456359863281	1631.097412109375	127.7223281860352	264.9366760253906	1571.952758789062	102.6669464111328	267.3781433105469	1551.145141601562	193.7010803222656	85.42860412597656	1608.011962890625	133.3100433349609	76.633544921875	1627.150390625	188.3927307128906	36.63697814941406	1421.699096679688	131.6469879150391	30.29610633850098	1433.377197265625	93.63887023925781	31.15817070007324	1491.882202148438	58.69417190551758	23.57779502868652	1513.927978515625	499.5877685546875	748.584716796875	1457.755737304688	497.7505493164062	727.7044067382812	1460.471923828125	489.5684509277344	641.0079956054688	1524.705932617188	489.5191345214844	648.3184814453125	1525.018432617188	480.6185302734375	536.3989868164062	1519.911254882812	362.0228576660156	500.7910461425781	1590.885864257812	512.1981811523438	366.3697814941406	1534.405639648438	518.6520385742188	383.5832824707031	1533.389526367188	513.7634887695312	274.3634948730469	1597.427001953125	511.4974670410156	283.6277160644531	1594.102416992188	487.9973449707031	74.16961669921875	1550.285888671875	414.9280395507812	87.4761962890625	1623.555786132812	439.9205932617188	42.77854156494141	1422.916259765625	454.904296875	30.09487915039062	1421.862182617188	499.8477172851562	30.91911125183105	1468.190673828125	547.150390625	21.18737411499023	
3	0.01	1604.792724609375	276.6985168457031	1006.640991210938	1604.38525390625	354.0929565429688	1009.64599609375	1585.527221679688	183.9140472412109	1066.251708984375	1572.993286132812	445.4132080078125	1091.465087890625	1413.4267578125	185.3992156982422	989.2642211914062	1406.962280273438	444.4238586425781	994.5794677734375	1559.896484375	562.2379760742188	1369.901611328125	1498.628662109375	592.7162475585938	1400.8115234375	1480.389526367188	639.9669799804688	1346.414428710938	1538.671142578125	616.5608520507812	1306.397216796875	1500.257446289062	665.2789306640625	1244.327880859375	1449.182739257812	613.97216796875	1218.614013671875	1410.375122070312	390.7445068359375	1708.224975585938	1367.90771484375	353.6642150878906	1714.914184570312	1369.480102539062	271.8052062988281	1712.392822265625	1419.795776367188	233.7303009033203	1701.117309570312	1532.833984375	480.7638854980469	1523.057373046875	1548.250854492188	128.4834136962891	1526.186889648438	1517.430908203125	30.12373733520508	1408.455078125	1566.504028320312	52.81771850585938	1354.878662109375	1539.767700195312	0.8069932460784912	1290.670654296875	1491.20703125	-21.28244590759277	1342.90625	1494.340209960938	-41.94876098632812	1249.12158203125	1457.789184570312	11.43811511993408	1217.37255859375	1448.322875976562	302.0241088867188	1455.04931640625	1391.036865234375	294.8740234375	1250.251586914062	1577.043334960938	312.8870239257812	1559.89306640625	1635.870849609375	307.5535583496094	1450.270751953125	1635.881225585938	311.1243896484375	1314.8720703125	1630.47314453125	306.3236389160156	1269.86083984375	1447.593994140625	-223.9970550537109	1140.1376953125	1473.206420898438	-200.928955078125	1107.831176757812	1437.772094726562	-229.0139770507812	1107.18310546875	1390.463134765625	-248.2124328613281	1100.535034179688	1413.601928710938	-210.1718139648438	1047.20263671875	1506.437744140625	808.8457641601562	1120.463012695312	1487.037353515625	837.1817016601562	1152.053100585938	1480.603515625	845.8974609375	1118.842651367188	1449.50927734375	889.8631591796875	1099.548095703125	1456.820434570312	844.2153930664062	1056.193237304688	1489.720458984375	123.1692810058594	716.0020141601562	1538.843994140625	134.8526916503906	719.72802734375	1553.054321289062	143.3910217285156	612.7561645507812	1490.630126953125	126.3197784423828	613.260498046875	1534.5107421875	142.8127288818359	520.3067016601562	1519.370849609375	259.1319885253906	492.1864013671875	1568.792236328125	100.2728652954102	350.7863464355469	1626.994384765625	122.5870361328125	352.7344055175781	1631.0888671875	127.7358856201172	264.9402770996094	1571.979858398438	102.6715774536133	267.3995971679688	1551.0908203125	193.7215270996094	85.41361236572266	1608.061279296875	133.3774719238281	76.61568450927734	1627.213256835938	188.3989868164062	36.65522766113281	1421.720825195312	131.6891784667969	30.30332946777344	1433.392578125	93.67194366455078	31.16513633728027	1491.885620117188	58.69456481933594	23.59375	1513.946899414062	499.5845642089844	748.5609741210938	1457.783813476562	497.7353210449219	727.7360229492188	1460.449951171875	489.6206970214844	641.0625	1524.7001953125	489.4743347167969	648.3446655273438	1525.049682617188	480.5672607421875	536.38623046875	1520.006713867188	362.0202941894531	500.813720703125	1590.923583984375	512.1729125976562	366.4189147949219	1534.416259765625	518.6226196289062	383.5908508300781	1533.351928710938	513.7210693359375	274.3887939453125	1597.423706054688	511.5178527832031	283.6750793457031	1594.143432617188	487.9382019042969	74.15402984619141	1550.29931640625	414.9612731933594	87.57969665527344	1623.571411132812	439.9012756347656	42.81744003295898	1422.897338867188	454.9109802246094	30.10128784179688	1421.869140625	499.8890075683594	30.98352241516113	1468.197387695312	547.2086791992188	21.25390815734863	
